<svg version="1.2" baseProfile="tiny-ps" xmlns="http://www.w3.org/2000/svg" viewBox="0 0 800 800" width="800" height="800">
	<title>direktiv-svg</title>
	<defs>
		<clipPath clipPathUnits="userSpaceOnUse" id="cp1">
			<path d="M-234 -234L1034 -234L1034 1034L-234 1034L-234 -234Z" />
		</clipPath>
	</defs>
	<style>
		tspan { white-space:pre }
		.shp0 { fill: #2d2d30 } 
	</style>
	<g id="g10">
		<g id="g12">
			<g id="Clip-Path: g14" clip-path="url(#cp1)">
				<g id="g14">
					<g id="g20">
						<path id="path22" fill-rule="evenodd" class="shp0" d="M759.96 368.71C759.96 414.33 726.52 452.19 682.88 459.33C644.5 578.13 533.09 664.41 401.68 664.41L283.49 664.41L283.49 726.99L99.63 726.99L99.63 543.13L283.49 543.13L283.49 605.72L401.68 605.72C503.96 605.72 591.13 540.5 624.27 449.54C595.61 433.95 576.1 403.57 576.1 368.71C576.1 333.87 595.59 303.5 624.23 287.91C591.09 196.94 503.96 131.7 401.68 131.7L220.91 131.7L220.91 379.25L259.32 340.84L300.82 382.35L191.56 491.6L82.3 382.34L123.81 340.84L162.21 379.25L162.21 73.01L401.68 73.01C533.14 73.01 644.79 159.26 683.13 278.13C726.65 285.36 759.96 323.17 759.96 368.71ZM224.8 601.83L158.33 601.83L158.33 668.3L224.8 668.3L224.8 601.83ZM701.27 368.71C701.27 350.38 686.36 335.47 668.03 335.47C649.71 335.47 634.8 350.38 634.8 368.71C634.8 387.03 649.71 401.94 668.03 401.94C686.36 401.94 701.27 387.03 701.27 368.71Z" />
					</g>
				</g>
			</g>
		</g>
	</g>
</svg>