<?xml version="1.0" encoding="UTF-8" standalone="no"?>
<svg
   xmlns:dc="http://purl.org/dc/elements/1.1/"
   xmlns:cc="http://creativecommons.org/ns#"
   xmlns:rdf="http://www.w3.org/1999/02/22-rdf-syntax-ns#"
   xmlns:svg="http://www.w3.org/2000/svg"
   xmlns="http://www.w3.org/2000/svg"
   xmlns:sodipodi="http://sodipodi.sourceforge.net/DTD/sodipodi-0.dtd"
   xmlns:inkscape="http://www.inkscape.org/namespaces/inkscape"
   version="1.1"
   id="svg2"
   xml:space="preserve"
   width="800"
   height="800"
   viewBox="0 0 800 800"
   sodipodi:docname="DirektivLogo_Symbol.ai"><metadata
     id="metadata8"><rdf:RDF><cc:Work
         rdf:about=""><dc:format>image/svg+xml</dc:format><dc:type
           rdf:resource="http://purl.org/dc/dcmitype/StillImage" /></cc:Work></rdf:RDF></metadata><defs
     id="defs6"><clipPath
       clipPathUnits="userSpaceOnUse"
       id="clipPath18"><path
         d="M 0,600 H 600 V 0 H 0 Z"
         id="path16" /></clipPath></defs><sodipodi:namedview
     pagecolor="#ffffff"
     bordercolor="#666666"
     borderopacity="1"
     objecttolerance="10"
     gridtolerance="10"
     guidetolerance="10"
     inkscape:pageopacity="0"
     inkscape:pageshadow="2"
     inkscape:window-width="640"
     inkscape:window-height="480"
     id="namedview4" /><g
     id="g10"
     inkscape:groupmode="layer"
     inkscape:label="DirektivLogo_Symbol"
     transform="matrix(1.3333333,0,0,-1.3333333,0,800)"><g
       id="g12"><g
         id="g14"
         clip-path="url(#clipPath18)"><g
           id="g20"
           transform="translate(426.8301,299.0801)"><path
             d="m 0,0 c -8.673,0 -15.728,7.055 -15.728,15.727 0,8.671 7.055,15.727 15.728,15.727 8.671,0 15.727,-7.056 15.727,-15.727 C 15.727,7.055 8.671,0 0,0 m -209.734,-126.035 h -31.453 v 31.453 h 31.453 z M 43.499,15.727 c 0,21.547 -15.765,39.437 -36.355,42.861 -18.144,56.247 -70.974,97.06 -133.18,97.06 H -239.347 V 10.738 l -18.174,18.174 -19.638,-19.638 51.699,-51.699 51.698,51.698 -19.638,19.639 -18.174,-18.174 v 117.137 h 85.538 c 48.4,0 89.627,-30.87 105.307,-73.914 C -34.281,46.584 -43.5,32.212 -43.5,15.727 c 0,-16.495 9.228,-30.873 22.792,-38.247 -15.681,-43.043 -56.929,-73.902 -105.328,-73.902 h -55.925 v 29.613 h -86.999 v -87 h 86.999 v 29.614 h 55.925 c 62.182,0 114.899,40.827 133.061,97.043 20.65,3.375 36.474,21.29 36.474,42.879"
             style="fill:#4293c4;fill-opacity:1;fill-rule:nonzero;stroke:none"
             id="path22" /></g></g></g></g></svg>