<svg version="1.2" baseProfile="tiny-ps" xmlns="http://www.w3.org/2000/svg" viewBox="0 0 512 512" width="512" height="512">
	<title>help-circle-svg</title>
	<style>
		tspan { white-space:pre }
		.shp0 { fill: #17a2b8 } 
	</style>
	<path id="Layer" fill-rule="evenodd" class="shp0" d="M441.95 256C441.95 358.66 358.66 441.95 256 441.95C153.34 441.95 70.05 358.66 70.05 256C70.05 153.34 153.34 70.05 256 70.05C358.66 70.05 441.95 153.34 441.95 256ZM257.6 363C259.95 362.02 262.09 360.6 263.89 358.8C265.68 357 267.11 354.86 268.08 352.51C269.06 350.16 269.56 347.64 269.56 345.1C269.56 337.27 264.84 330.2 257.6 327.21C250.36 324.21 242.03 325.86 236.49 331.4C230.95 336.94 229.3 345.28 232.29 352.51C235.29 359.75 242.35 364.47 250.19 364.47C252.73 364.47 255.25 363.97 257.6 363ZM323.79 205.22C323.79 182.81 310.91 164.32 287.47 153.23C279.63 149.53 268.08 147.45 255.78 147.6C238.4 147.81 223.73 152.63 212.2 161.91C189.95 179.81 188.31 201.01 188.22 203.36C188.05 206.96 189.31 210.47 191.73 213.13C194.14 215.79 197.52 217.39 201.11 217.56C204.7 217.73 208.22 216.47 210.88 214.05C213.54 211.64 215.13 208.26 215.32 204.67C215.32 204.51 216.41 193.29 229.21 182.99C236 177.52 244.81 174.81 256.16 174.67C265.21 174.56 272.56 176.09 275.86 177.66C289.9 184.33 296.68 193.35 296.68 205.22C296.68 222.68 286.12 230.63 267.45 243.16C247.36 256.65 237.6 273.52 237.6 294.74C237.6 298.34 239.03 301.78 241.57 304.33C244.11 306.87 247.56 308.3 251.16 308.3C254.75 308.3 258.2 306.87 260.75 304.33C263.29 301.78 264.72 298.34 264.72 294.74C264.72 285.88 266.88 276.22 282.58 265.68C301.9 252.7 323.79 237.99 323.79 205.22Z" />
</svg>